<?xml version="1.0" encoding="UTF-8" standalone="no"?>
<!DOCTYPE svg PUBLIC "-//W3C//DTD SVG 1.1//EN" "http://www.w3.org/Graphics/SVG/1.1/DTD/svg11.dtd">
<svg width="100%" height="100%" viewBox="0 0 385 106" version="1.1" xmlns="http://www.w3.org/2000/svg" xmlns:xlink="http://www.w3.org/1999/xlink" xml:space="preserve" xmlns:serif="http://www.serif.com/" style="fill-rule:evenodd;clip-rule:evenodd;stroke-linejoin:round;stroke-miterlimit:2;">
    <g transform="matrix(1,0,0,1,-1.31052,-156.997)">
        <g id="openlineage-logo-black" transform="matrix(1,0,0,1,1.31052,156.997)">
            <rect x="0" y="0" width="384.097" height="105.459" style="fill:none;"/>
            <g>
                <g transform="matrix(1,0,0,1,308.853,65.3478)">
                    <path d="M0,-19.552C-1.54,-20.49 -3.285,-20.96 -5.233,-20.96C-7.146,-20.96 -8.872,-20.473 -10.413,-19.499C-11.954,-18.524 -13.158,-17.188 -14.026,-15.488C-14.895,-13.787 -15.328,-11.892 -15.328,-9.802C-15.328,-7.677 -14.895,-5.765 -14.026,-4.065C-13.158,-2.365 -11.954,-1.027 -10.413,-0.053C-8.872,0.921 -7.146,1.408 -5.233,1.408C-3.285,1.408 -1.54,0.939 0,0C1.541,-0.938 2.745,-2.266 3.613,-3.985C4.48,-5.702 4.915,-7.642 4.915,-9.802C4.915,-11.963 4.48,-13.894 3.613,-15.594C2.745,-17.294 1.541,-18.613 0,-19.552" style="fill-rule:nonzero;"/>
                </g>
                <g transform="matrix(1,0,0,1,276.179,65.295)">
                    <path d="M0,-19.446C-1.471,-20.42 -3.127,-20.907 -4.968,-20.907C-6.811,-20.907 -8.467,-20.429 -9.936,-19.473C-11.406,-18.516 -12.558,-17.196 -13.39,-15.514C-14.222,-13.832 -14.638,-11.928 -14.638,-9.803C-14.638,-7.678 -14.231,-5.756 -13.416,-4.038C-12.602,-2.32 -11.459,-0.974 -9.989,-0.001C-8.52,0.974 -6.846,1.461 -4.968,1.461C-3.127,1.461 -1.471,0.974 0,-0.001C1.469,-0.974 2.62,-2.32 3.453,-4.038C4.285,-5.756 4.702,-7.678 4.702,-9.803C4.702,-11.857 4.285,-13.735 3.453,-15.435C2.62,-17.135 1.469,-18.471 0,-19.446" style="fill-rule:nonzero;"/>
                </g>
                <g transform="matrix(1,0,0,1,245.204,51.7997)">
                    <path d="M0,-6.376C-1.328,-6.995 -2.701,-7.306 -4.117,-7.306C-6.172,-7.306 -8.075,-6.597 -9.829,-5.181C-11.582,-3.763 -12.707,-1.727 -13.202,0.93L4.915,0.93L4.915,0.504C4.737,-1.089 4.206,-2.479 3.321,-3.667C2.436,-4.853 1.328,-5.756 0,-6.376" style="fill-rule:nonzero;"/>
                </g>
                <g transform="matrix(1,0,0,1,346.55,48.8189)">
                    <path d="M0,6.328C-0.32,6.629 -0.691,6.779 -1.117,6.779L-21.199,6.779C-21.199,8.905 -20.767,10.809 -19.898,12.491C-19.031,14.174 -17.791,15.502 -16.18,16.475C-14.568,17.45 -12.664,17.937 -10.467,17.937C-8.768,17.937 -7.244,17.583 -5.898,16.874C-4.553,16.166 -3.473,15.263 -2.658,14.164C-2.268,13.846 -1.896,13.686 -1.541,13.686C-1.187,13.686 -0.869,13.828 -0.586,14.111C-0.303,14.395 -0.16,14.714 -0.16,15.068C-0.16,15.458 -0.338,15.83 -0.691,16.183C-1.826,17.565 -3.252,18.699 -4.969,19.584C-6.687,20.469 -8.502,20.912 -10.414,20.912C-13.143,20.912 -15.551,20.328 -17.641,19.159C-19.73,17.99 -21.359,16.352 -22.528,14.244C-23.697,12.137 -24.281,9.702 -24.281,6.939C-24.281,4.035 -23.706,1.493 -22.555,-0.686C-21.404,-2.864 -19.871,-4.528 -17.959,-5.68C-16.047,-6.83 -14.01,-7.406 -11.85,-7.406C-9.725,-7.406 -7.73,-6.91 -5.871,-5.919C-4.012,-4.927 -2.498,-3.475 -1.33,-1.562C-0.16,0.35 0.441,2.618 0.477,5.239C0.477,5.663 0.318,6.027 0,6.328M-29.807,17.884C-29.807,20.646 -30.383,23.011 -31.534,24.976C-32.686,26.942 -34.262,28.438 -36.263,29.466C-38.264,30.493 -40.558,31.007 -43.143,31.007C-44.383,31.007 -45.685,30.848 -47.048,30.529C-48.412,30.21 -49.581,29.802 -50.555,29.307C-51.529,28.81 -52.087,28.297 -52.229,27.766C-52.477,27.517 -52.6,27.235 -52.6,26.916C-52.6,26.561 -52.44,26.278 -52.122,26.066C-51.98,25.959 -51.803,25.906 -51.591,25.906C-51.378,25.906 -50.971,26.03 -50.368,26.278L-49.253,26.756C-47.057,27.606 -45.002,28.032 -43.09,28.032C-39.938,28.032 -37.467,27.137 -35.678,25.349C-33.89,23.559 -32.995,21.142 -32.995,18.096L-32.995,14.802C-33.881,16.715 -35.279,18.211 -37.192,19.291C-39.104,20.372 -41.106,20.912 -43.196,20.912C-45.64,20.912 -47.845,20.301 -49.811,19.079C-51.776,17.857 -53.326,16.166 -54.46,14.005C-55.594,11.845 -56.16,9.418 -56.16,6.726C-56.16,4.07 -55.594,1.661 -54.46,-0.5C-53.326,-2.66 -51.776,-4.351 -49.811,-5.573C-47.845,-6.796 -45.658,-7.406 -43.249,-7.406C-41.018,-7.406 -38.972,-6.849 -37.112,-5.733C-35.253,-4.617 -33.881,-3.28 -32.995,-1.721L-32.995,-5.122C-32.995,-5.582 -32.845,-5.972 -32.543,-6.291C-32.243,-6.61 -31.861,-6.769 -31.401,-6.769C-30.941,-6.769 -30.56,-6.618 -30.259,-6.317C-29.958,-6.016 -29.807,-5.617 -29.807,-5.122L-29.807,17.884ZM-62.694,18.787C-62.694,19.247 -62.846,19.629 -63.146,19.929C-63.447,20.23 -63.828,20.381 -64.288,20.381C-64.749,20.381 -65.13,20.23 -65.431,19.929C-65.731,19.629 -65.882,19.247 -65.882,18.787L-65.882,15.227C-66.768,16.821 -68.096,18.167 -69.867,19.265C-71.639,20.363 -73.568,20.912 -75.658,20.912C-78.031,20.912 -80.166,20.293 -82.061,19.053C-83.955,17.813 -85.443,16.113 -86.523,13.952C-87.604,11.792 -88.144,9.365 -88.144,6.673C-88.144,3.982 -87.595,1.564 -86.496,-0.579C-85.399,-2.722 -83.902,-4.396 -82.007,-5.6C-80.112,-6.804 -78.014,-7.406 -75.711,-7.406C-73.586,-7.406 -71.639,-6.893 -69.867,-5.866C-68.096,-4.838 -66.768,-3.492 -65.882,-1.828L-65.882,-5.122C-65.882,-5.582 -65.731,-5.972 -65.431,-6.291C-65.13,-6.61 -64.749,-6.769 -64.288,-6.769C-63.828,-6.769 -63.447,-6.61 -63.146,-6.291C-62.846,-5.972 -62.694,-5.582 -62.694,-5.122L-62.694,18.787ZM-93.616,6.328C-93.935,6.629 -94.307,6.779 -94.731,6.779L-114.814,6.779C-114.814,8.905 -114.382,10.809 -113.514,12.491C-112.646,14.174 -111.406,15.502 -109.794,16.475C-108.183,17.45 -106.279,17.937 -104.083,17.937C-102.383,17.937 -100.86,17.583 -99.514,16.874C-98.168,16.166 -97.088,15.263 -96.272,14.164C-95.883,13.846 -95.511,13.686 -95.156,13.686C-94.803,13.686 -94.484,13.828 -94.2,14.111C-93.917,14.395 -93.775,14.714 -93.775,15.068C-93.775,15.458 -93.953,15.83 -94.307,16.183C-95.44,17.565 -96.866,18.699 -98.584,19.584C-100.302,20.469 -102.117,20.912 -104.029,20.912C-106.758,20.912 -109.166,20.328 -111.255,19.159C-113.346,17.99 -114.975,16.352 -116.144,14.244C-117.313,12.137 -117.896,9.702 -117.896,6.939C-117.896,4.035 -117.321,1.493 -116.17,-0.686C-115.02,-2.864 -113.486,-4.528 -111.574,-5.68C-109.661,-6.83 -107.625,-7.406 -105.464,-7.406C-103.339,-7.406 -101.347,-6.91 -99.487,-5.919C-97.627,-4.927 -96.113,-3.475 -94.944,-1.562C-93.775,0.35 -93.174,2.618 -93.138,5.239C-93.138,5.663 -93.297,6.027 -93.616,6.328M-124.432,18.787C-124.432,19.247 -124.591,19.629 -124.909,19.929C-125.229,20.23 -125.6,20.381 -126.025,20.381C-126.485,20.381 -126.867,20.23 -127.167,19.929C-127.469,19.629 -127.619,19.247 -127.619,18.787L-127.619,3.326C-127.619,1.024 -128.195,-0.845 -129.346,-2.279C-130.497,-3.714 -132.277,-4.431 -134.686,-4.431C-136.209,-4.431 -137.652,-4.077 -139.016,-3.368C-140.38,-2.66 -141.486,-1.713 -142.336,-0.526C-143.187,0.661 -143.611,1.945 -143.611,3.326L-143.611,18.787C-143.611,19.247 -143.763,19.629 -144.062,19.929C-144.364,20.23 -144.745,20.381 -145.205,20.381C-145.666,20.381 -146.047,20.23 -146.348,19.929C-146.648,19.629 -146.799,19.247 -146.799,18.787L-146.799,-5.016C-146.799,-5.476 -146.648,-5.857 -146.348,-6.158C-146.047,-6.459 -145.666,-6.61 -145.205,-6.61C-144.745,-6.61 -144.364,-6.459 -144.062,-6.158C-143.763,-5.857 -143.611,-5.476 -143.611,-5.016L-143.611,-2.093C-142.655,-3.616 -141.282,-4.883 -139.493,-5.892C-137.705,-6.901 -135.872,-7.406 -133.995,-7.406C-130.7,-7.406 -128.283,-6.441 -126.742,-4.511C-125.201,-2.58 -124.432,-0.021 -124.432,3.166L-124.432,18.787ZM-154.502,-12.773C-154.502,-12.135 -154.688,-11.648 -155.06,-11.312C-155.432,-10.974 -155.973,-10.807 -156.681,-10.807C-157.39,-10.807 -157.938,-10.974 -158.328,-11.312C-158.718,-11.648 -158.912,-12.135 -158.912,-12.773L-158.912,-13.304C-158.912,-13.942 -158.709,-14.428 -158.301,-14.765C-157.895,-15.101 -157.336,-15.27 -156.627,-15.27C-155.211,-15.27 -154.502,-14.614 -154.502,-13.304L-154.502,-12.773ZM-155.087,18.787C-155.087,19.247 -155.237,19.629 -155.538,19.929C-155.84,20.23 -156.221,20.381 -156.681,20.381C-157.142,20.381 -157.522,20.23 -157.823,19.929C-158.125,19.629 -158.275,19.247 -158.275,18.787L-158.275,-5.653C-158.275,-6.113 -158.125,-6.494 -157.823,-6.796C-157.522,-7.096 -157.142,-7.247 -156.681,-7.247C-156.221,-7.247 -155.84,-7.096 -155.538,-6.796C-155.237,-6.494 -155.087,-6.113 -155.087,-5.653L-155.087,18.787ZM-163.933,19.929C-164.234,20.23 -164.615,20.381 -165.075,20.381L-184.042,20.381C-184.503,20.381 -184.884,20.23 -185.185,19.929C-185.486,19.629 -185.637,19.247 -185.637,18.787L-185.637,-15.216C-185.637,-15.676 -185.477,-16.058 -185.158,-16.359C-184.84,-16.659 -184.433,-16.811 -183.937,-16.811C-183.477,-16.811 -183.086,-16.659 -182.768,-16.359C-182.449,-16.058 -182.29,-15.676 -182.29,-15.216L-182.29,17.246L-165.075,17.246C-164.615,17.246 -164.234,17.388 -163.933,17.671C-163.632,17.955 -163.481,18.327 -163.481,18.787C-163.481,19.247 -163.632,19.629 -163.933,19.929M3.5,-30.82L-194.96,-30.82L-194.96,37.148L5.484,37.148L28.505,3.164L3.5,-30.82Z" style="fill-rule:nonzero;"/>
                </g>
                <g transform="matrix(1,0,0,1,338.82,51.7997)">
                    <path d="M0,-6.376C-1.33,-6.995 -2.703,-7.306 -4.119,-7.306C-6.174,-7.306 -8.076,-6.597 -9.83,-5.181C-11.584,-3.763 -12.708,-1.727 -13.203,0.93L4.914,0.93L4.914,0.504C4.736,-1.089 4.205,-2.479 3.32,-3.667C2.434,-4.853 1.328,-5.756 0,-6.376" style="fill-rule:nonzero;"/>
                </g>
                <g transform="matrix(1,0,0,1,46.4533,58.8662)">
                    <path d="M0,-16.524C-1.222,-18.95 -2.922,-20.836 -5.1,-22.182C-7.279,-23.528 -9.768,-24.201 -12.565,-24.201C-15.364,-24.201 -17.852,-23.528 -20.03,-22.182C-22.208,-20.836 -23.909,-18.95 -25.13,-16.524C-26.353,-14.097 -26.963,-11.344 -26.963,-8.262C-26.963,-5.181 -26.353,-2.426 -25.13,-0.001C-23.909,2.426 -22.208,4.312 -20.03,5.658C-17.852,7.004 -15.364,7.677 -12.565,7.677C-9.768,7.677 -7.279,7.004 -5.1,5.658C-2.922,4.312 -1.222,2.426 0,-0.001C1.222,-2.426 1.833,-5.181 1.833,-8.262C1.833,-11.344 1.222,-14.097 0,-16.524M2.949,1.567C1.426,4.472 -0.682,6.747 -3.374,8.394C-6.066,10.041 -9.13,10.865 -12.565,10.865C-16.001,10.865 -19.065,10.041 -21.757,8.394C-24.449,6.747 -26.557,4.472 -28.079,1.567C-29.603,-1.337 -30.364,-4.614 -30.364,-8.262C-30.364,-11.945 -29.603,-15.24 -28.079,-18.145C-26.557,-21.048 -24.449,-23.316 -21.757,-24.945C-19.065,-26.574 -16.001,-27.389 -12.565,-27.389C-9.13,-27.389 -6.066,-26.574 -3.374,-24.945C-0.682,-23.316 1.426,-21.048 2.949,-18.145C4.471,-15.24 5.233,-11.945 5.233,-8.262C5.233,-4.614 4.471,-1.337 2.949,1.567" style="fill-rule:nonzero;"/>
                </g>
                <g transform="matrix(1,0,0,1,76.0465,56.4744)">
                    <path d="M0,8.714C1.469,7.776 2.621,6.474 3.454,4.809C4.285,3.144 4.702,1.267 4.702,-0.823C4.702,-2.877 4.285,-4.728 3.454,-6.375C2.621,-8.022 1.469,-9.315 0,-10.254C-1.47,-11.192 -3.126,-11.661 -4.968,-11.661C-6.846,-11.661 -8.527,-11.201 -10.015,-10.28C-11.503,-9.359 -12.654,-8.075 -13.469,-6.428C-14.284,-4.781 -14.69,-2.912 -14.69,-0.823C-14.69,1.267 -14.284,3.144 -13.469,4.809C-12.654,6.474 -11.503,7.776 -10.015,8.714C-8.527,9.653 -6.846,10.122 -4.968,10.122C-3.126,10.122 -1.47,9.653 0,8.714M1.673,-12.857C3.586,-11.67 5.082,-10.023 6.163,-7.916C7.243,-5.808 7.784,-3.444 7.784,-0.823C7.784,1.834 7.243,4.216 6.163,6.323C5.082,8.431 3.595,10.087 1.7,11.291C-0.195,12.495 -2.311,13.097 -4.649,13.097C-6.704,13.097 -8.59,12.61 -10.307,11.636C-12.026,10.662 -13.398,9.36 -14.425,7.731L-14.425,21.757C-14.425,22.217 -14.576,22.598 -14.876,22.9C-15.178,23.2 -15.559,23.351 -16.019,23.351C-16.479,23.351 -16.861,23.2 -17.161,22.9C-17.462,22.598 -17.613,22.217 -17.613,21.757L-17.613,-12.884C-17.613,-13.344 -17.462,-13.734 -17.161,-14.053C-16.861,-14.371 -16.479,-14.531 -16.019,-14.531C-15.559,-14.531 -15.178,-14.371 -14.876,-14.053C-14.576,-13.734 -14.425,-13.344 -14.425,-12.884L-14.425,-9.271C-13.504,-10.935 -12.176,-12.246 -10.44,-13.203C-8.705,-14.159 -6.792,-14.637 -4.702,-14.637C-2.364,-14.637 -0.239,-14.043 1.673,-12.857" style="fill-rule:nonzero;"/>
                </g>
                <g transform="matrix(1,0,0,1,95.3322,64.524)">
                    <path d="M0,-17.905C-1.753,-16.488 -2.878,-14.451 -3.374,-11.795L14.744,-11.795L14.744,-12.22C14.566,-13.814 14.035,-15.203 13.15,-16.391C12.264,-17.577 11.157,-18.48 9.829,-19.1C8.501,-19.719 7.128,-20.03 5.711,-20.03C3.657,-20.03 1.753,-19.321 0,-17.905M17.56,-9.377C17.241,-9.076 16.869,-8.926 16.444,-8.926L-3.639,-8.926C-3.639,-6.801 -3.206,-4.896 -2.338,-3.214C-1.47,-1.531 -0.231,-0.203 1.381,0.77C2.993,1.745 4.896,2.232 7.093,2.232C8.793,2.232 10.315,1.878 11.662,1.169C13.008,0.461 14.088,-0.443 14.903,-1.541C15.292,-1.86 15.665,-2.019 16.019,-2.019C16.373,-2.019 16.691,-1.877 16.975,-1.594C17.258,-1.31 17.4,-0.991 17.4,-0.637C17.4,-0.247 17.223,0.125 16.869,0.478C15.735,1.86 14.31,2.993 12.592,3.879C10.874,4.763 9.059,5.207 7.146,5.207C4.418,5.207 2.01,4.622 -0.08,3.453C-2.17,2.285 -3.799,0.647 -4.968,-1.461C-6.137,-3.568 -6.721,-6.004 -6.721,-8.766C-6.721,-11.67 -6.146,-14.212 -4.994,-16.391C-3.844,-18.569 -2.311,-20.234 -0.398,-21.385C1.514,-22.535 3.551,-23.112 5.711,-23.112C7.837,-23.112 9.829,-22.615 11.688,-21.624C13.548,-20.632 15.063,-19.18 16.231,-17.267C17.4,-15.355 18.002,-13.088 18.038,-10.467C18.038,-10.042 17.878,-9.678 17.56,-9.377" style="fill-rule:nonzero;"/>
                </g>
                <g transform="matrix(1,0,0,1,140.015,66.304)">
                    <path d="M0,-21.996C1.541,-20.065 2.311,-17.506 2.311,-14.319L2.311,1.302C2.311,1.762 2.152,2.144 1.833,2.444C1.514,2.745 1.143,2.896 0.717,2.896C0.257,2.896 -0.125,2.745 -0.425,2.444C-0.726,2.144 -0.876,1.762 -0.876,1.302L-0.876,-14.159C-0.876,-16.461 -1.453,-18.33 -2.604,-19.765C-3.755,-21.199 -5.535,-21.916 -7.943,-21.916C-9.466,-21.916 -10.91,-21.562 -12.273,-20.853C-13.637,-20.145 -14.744,-19.198 -15.594,-18.011C-16.444,-16.824 -16.869,-15.54 -16.869,-14.159L-16.869,1.302C-16.869,1.762 -17.02,2.144 -17.32,2.444C-17.622,2.745 -18.003,2.896 -18.463,2.896C-18.923,2.896 -19.305,2.745 -19.605,2.444C-19.906,2.144 -20.057,1.762 -20.057,1.302L-20.057,-22.501C-20.057,-22.961 -19.906,-23.342 -19.605,-23.643C-19.305,-23.944 -18.923,-24.095 -18.463,-24.095C-18.003,-24.095 -17.622,-23.944 -17.32,-23.643C-17.02,-23.342 -16.869,-22.961 -16.869,-22.501L-16.869,-19.579C-15.913,-21.101 -14.54,-22.368 -12.751,-23.377C-10.963,-24.387 -9.13,-24.892 -7.252,-24.892C-3.958,-24.892 -1.541,-23.926 0,-21.996" style="fill-rule:nonzero;"/>
                </g>
            </g>
        </g>
    </g>
</svg>
